#!OML:ASF H:\Terrain\Patient Classification 1\Takeo\Monday\TakeoMonday.ASF
:FULLY-SPECIFIED
:DEGREES
1056
root 9.54027 17.2307 -3.34182 -10.8123 -12.8702 -1.3643
lowerback 4.08364 4.95308 3.15481
upperback 2.40901 6.71328 -2.62288
thorax 0.884925 3.43183 -4.64213
lowerneck -20.1547 0.819355 -7.36976
upperneck -1.42879 2.31809 9.92443
head 2.55981 1.64833 4.45846
rclavicle -9.48203e-014 1.27222e-014
rhumerus 84.2881 31.3888 -46.6658
rradius 49.8888
rwrist -5.8175
rhand -42.2194 35.6096
rfingers 7.12502
rthumb -15.1065 6.18092
lclavicle -9.48203e-014 1.27222e-014
lhumerus 58.6974 7.1285 76.1904
lradius 90.93
lwrist 50.2763
lhand -44.7713 26.7506
lfingers 7.12502
lthumb -17.5635 55.9772
rfemur 15.2121 -8.15703 23.3223
rtibia 18.7002
rfoot -27.8539 -24.2886
rtoes -2.90033
lfemur -14.4184 -6.42549 -13.5871
ltibia 33.1854
lfoot -5.04343 4.05893
ltoes -11.7546
1057
root 9.5338 17.2283 -3.33722 -10.7948 -12.921 -1.53501
lowerback 3.94327 4.93819 3.31961
upperback 2.44781 6.69653 -2.58647
thorax 1.01628 3.42908 -4.67889
lowerneck -20.2277 0.799902 -7.40957
upperneck -1.23289 2.29751 9.828
head 2.63099 1.63612 4.43645
rclavicle -2.01766e-014 -1.59028e-014
rhumerus 84.5269 31.514 -46.3949
rradius 49.9834
rwrist -5.61338
rhand -42.0388 34.6229
rfingers 7.12502
rthumb -14.9326 5.18122
lclavicle -2.01766e-014 -1.59028e-014
lhumerus 58.62 7.34546 76.7037
lradius 91.1713
lwrist 50.4639
lhand -44.7706 26.6247
lfingers 7.12502
lthumb -17.5629 55.8514
rfemur 15.0789 -8.26083 23.4735
rtibia 19.044
rfoot -27.9824 -24.2006
rtoes -3.66548
lfemur -14.3417 -6.36174 -13.3679
ltibia 33.1186
lfoot -4.96218 4.07061
ltoes -12.2569
1058
root 9.52921 17.2202 -3.33556 -10.8635 -12.9102 -1.47903
lowerback 3.9637 4.91883 3.28523
upperback 2.45146 6.67019 -2.63538
thorax 1.00789 3.41588 -4.71197
lowerneck -20.2745 0.837252 -7.33039
upperneck -1.16084 2.33318 9.68412
head 2.65724 1.64802 4.38203
rclavicle 1.14301e-015 -3.97569e-014
rhumerus 84.6678 31.6728 -46.1826
rradius 50.0781
rwrist -5.38353
rhand -42.0892 33.5508
rfingers 7.12502
rthumb -14.9811 4.11269
lclavicle 1.14301e-015 -3.97569e-014
lhumerus 58.3014 7.61179 77.0529
lradius 91.5257
lwrist 51.1102
lhand -44.8218 26.9986
lfingers 7.12502
lthumb -17.6122 56.2209
rfemur 15.0555 -8.29573 23.4007
rtibia 19.2638
rfoot -28.0721 -24.2133
rtoes -3.84079
lfemur -14.2675 -6.2616 -13.4177
ltibia 33.0818
lfoot -4.86036 4.03972
ltoes -13.0009
1059
root 9.52254 17.2212 -3.33243 -11.0275 -12.8637 -1.10474
lowerback 3.95436 4.95041 2.95402
upperback 2.51485 6.70213 -2.74844
thorax 1.05697 3.43046 -4.64165
lowerneck -20.3302 0.820636 -7.38454
upperneck -1.14187 2.33074 9.58336
head 2.67042 1.64321 4.35993
rclavicle -5.08392e-014 1.90833e-014
rhumerus 84.8255 31.6869 -45.8945
rradius 50.0111
rwrist -5.53056
rhand -41.7852 33.2571
rfingers 7.12502
rthumb -14.6882 3.79743
lclavicle -5.08392e-014 1.90833e-014
lhumerus 57.9206 7.86956 77.2605
lradius 91.8202
lwrist 51.4431
lhand -44.7449 27.0104
lfingers 7.12502
lthumb -17.5382 56.2393
rfemur 15.1272 -8.41069 22.912
rtibia 19.3607
rfoot -28.0975 -24.003
rtoes -4.01624
lfemur -14.1573 -6.09196 -13.8282
ltibia 33.1207
lfoot -4.97146 3.96865
ltoes -13.6444
1060
root 9.51842 17.2216 -3.32732 -10.974 -12.9034 -1.2427
lowerback 3.75694 4.9759 3.11836
upperback 2.60871 6.7387 -2.67349
thorax 1.27783 3.45689 -4.62992
lowerneck -20.3864 0.766565 -7.57286
upperneck -1.18459 2.31474 9.46686
head 2.66428 1.63061 4.35298
rclavicle -4.29375e-014 1.90833e-014
rhumerus 85.0743 31.6733 -45.3693
rradius 49.9864
rwrist -5.78417
rhand -41.3679 33.2954
rfingers 7.12502
rthumb -14.2862 3.80687
lclavicle -4.29375e-014 1.90833e-014
lhumerus 57.6952 8.0764 77.5811
lradius 91.9911
lwrist 51.1226
lhand -44.5266 26.4629
lfingers 7.12502
lthumb -17.3281 55.7104
rfemur 15.0559 -8.67114 22.9352
rtibia 19.5057
rfoot -28.1524 -23.6537
rtoes -4.02676
lfemur -14.1761 -5.90735 -13.671
ltibia 33.1821
lfoot -5.11792 3.85565
ltoes -13.527
1061
root 9.51594 17.2136 -3.32584 -10.8372 -13.0558 -1.72774
lowerback 3.67453 4.93906 3.61631
upperback 2.69985 6.7023 -2.56747
thorax 1.46027 3.45187 -4.78128
lowerneck -20.6476 0.810482 -7.36627
upperneck -1.23702 2.35609 9.17016
head 2.68473 1.64179 4.23245
rclavicle 3.03147e-014 1.43125e-014
rhumerus 85.421 31.7593 -44.942
rradius 50.1006
rwrist -5.74579
rhand -41.3383 32.7741
rfingers 7.12502
rthumb -14.2576 3.28352
lclavicle 3.03147e-014 1.43125e-014
lhumerus 57.6562 8.32043 77.8486
lradius 91.936
lwrist 50.6739
lhand -44.3266 25.8223
lfingers 7.12502
lthumb -17.1356 55.0867
rfemur 14.9324 -8.79123 23.4261
rtibia 19.6843
rfoot -28.2148 -23.5236
rtoes -3.75349
lfemur -14.2605 -5.74514 -13.1037
ltibia 33.2925
lfoot -5.11448 3.79932
ltoes -13.6407
1062
root 9.51013 17.2086 -3.32938 -10.9323 -13.1696 -1.72499
lowerback 3.83722 4.91909 3.61608
upperback 2.78912 6.6801 -2.62076
thorax 1.46641 3.44362 -4.8471
lowerneck -20.8136 0.875994 -7.06779
upperneck -1.24537 2.39604 8.85751
head 2.70636 1.64913 4.09068
rclavicle -6.60462e-014 2.70347e-014
rhumerus 85.7183 31.835 -44.5925
rradius 50.237
rwrist -6.02639
rhand -40.8598 32.3173
rfingers 7.12502
rthumb -13.7965 2.79481
lclavicle -6.60462e-014 2.70347e-014
lhumerus 57.6264 8.44518 78.2279
lradius 91.8356
lwrist 50.8126
lhand -44.0342 25.3417
lfingers 7.12502
lthumb -16.8542 54.6303
rfemur 14.9908 -8.76127 23.4313
rtibia 19.7595
rfoot -28.1225 -23.4718
rtoes -3.89726
lfemur -14.2523 -5.59255 -13.0591
ltibia 33.5055
lfoot -5.11424 3.79761
ltoes -13.8444
1063
root 9.50439 17.1994 -3.33425 -11.0471 -13.2159 -1.57626
lowerback 3.97718 4.91227 3.43816
upperback 2.86537 6.6692 -2.67342
thorax 1.45176 3.43682 -4.81282
lowerneck -20.8409 0.901076 -6.88813
upperneck -1.10325 2.39641 8.51847
head 2.75585 1.6327 3.95608
rclavicle -8.57259e-014 1.59028e-015
rhumerus 85.8294 31.9071 -44.3605
rradius 50.2742
rwrist -6.48682
rhand -39.9701 31.9615
rfingers 7.12502
rthumb -12.9389 2.38262
lclavicle -8.57259e-014 1.59028e-015
lhumerus 57.3985 8.50589 78.5865
lradius 92.0388
lwrist 51.1555
lhand -44.0377 25.8978
lfingers 7.12502
lthumb -16.8575 55.1861
rfemur 15.0713 -8.75431 23.2837
rtibia 19.7861
rfoot -28.0178 -23.4471
rtoes -3.84373
lfemur -14.2697 -5.35946 -13.1977
ltibia 33.7521
lfoot -5.24427 3.75074
ltoes -13.5769
1064
root 9.50012 17.1891 -3.33501 -11.0327 -13.2777 -1.82682
lowerback 4.02471 4.85821 3.69225
upperback 2.93047 6.60613 -2.65018
thorax 1.51295 3.41256 -4.92978
lowerneck -21.3805 0.852824 -6.92353
upperneck -0.336685 2.32399 8.63518
head 3.07381 1.6159 4.01254
rclavicle 3.55328e-014 6.36111e-015
rhumerus 85.6512 32.1627 -44.4934
rradius 50.448
rwrist -6.36588
rhand -39.5495 31.4971
rfingers 7.12502
rthumb -12.5335 1.893
lclavicle 3.55328e-014 6.36111e-015
lhumerus 56.9397 8.63554 78.7127
lradius 92.3849
lwrist 51.4361
lhand -44.3793 26.5078
lfingers 7.12502
lthumb -17.1863 55.7677
rfemur 15.0443 -8.7225 23.6125
rtibia 19.9189
rfoot -28.0812 -23.5786
rtoes -3.85079
lfemur -14.3117 -5.17427 -12.9059
ltibia 33.9395
lfoot -5.399 3.69263
ltoes -12.9508
1065
root 9.49511 17.1871 -3.33204 -11.0279 -13.3704 -1.98631
lowerback 3.98583 4.82571 3.8583
upperback 3.0157 6.56705 -2.63592
thorax 1.63634 3.40084 -4.99806
lowerneck -21.8183 0.813987 -6.78881
upperneck 0.309446 2.22755 8.6413
head 3.34521 1.57977 4.00143
rclavicle -8.16011e-014 3.65764e-014
rhumerus 85.3697 32.5755 -44.6897
rradius 50.7463
rwrist -6.09516
rhand -39.5194 31.9669
rfingers 7.12502
rthumb -12.5045 2.36101
lclavicle -8.16011e-014 3.65764e-014
lhumerus 56.3892 8.79266 78.9582
lradius 92.7397
lwrist 51.7375
lhand -44.684 27.3198
lfingers 7.12502
lthumb -17.4795 56.5539
rfemur 15.021 -8.63204 23.8553
rtibia 20.0495
rfoot -28.2077 -23.6836
rtoes -4.39477
lfemur -14.3659 -5.12703 -12.6841
ltibia 34.1177
lfoot -5.4515 3.7094
ltoes -11.9764
1066
root 9.48749 17.1827 -3.32958 -11.1189 -13.4848 -1.80538
lowerback 3.99646 4.84941 3.59964
upperback 3.1097 6.59136 -2.64857
thorax 1.70178 3.41125 -4.8641
lowerneck -22.0225 0.743215 -6.69667
upperneck 0.665597 2.10916 8.53733
head 3.49509 1.52073 3.95191
rclavicle -9.14906e-014 3.18055e-014
rhumerus 85.2328 32.9524 -44.6736
rradius 50.7137
rwrist -6.06218
rhand -39.7066 32.6063
rfingers 7.12502
rthumb -12.6849 3.01155
lclavicle -9.14906e-014 3.18055e-014
lhumerus 55.9119 8.92428 79.3914
lradius 92.8927
lwrist 51.8795
lhand -44.8854 27.9851
lfingers 7.12502
lthumb -17.6734 57.2019
rfemur 15.0879 -8.47641 23.7305
rtibia 20.0878
rfoot -28.3669 -23.628
rtoes -4.38535
lfemur -14.378 -5.02056 -12.8115
ltibia 34.2842
lfoot -5.50103 3.69527
ltoes -11.6331
